<?xml version="1.0" encoding="utf-8"?>
<!-- Generator: Adobe Illustrator 22.0.0, SVG Export Plug-In . SVG Version: 6.00 Build 0)  -->
<svg version="1.1" id="Layer_1" xmlns="http://www.w3.org/2000/svg" xmlns:xlink="http://www.w3.org/1999/xlink" x="0px" y="0px"
	 width="155.127px" viewBox="0 0 400.127 131.532" style="enable-background:new 0 0 400.127 131.532;"
	 xml:space="preserve">
<style type="text/css">
	.st0{fill:#00A2A8;}
</style>
<g>
	<rect x="52.546" y="52.85" class="st0" width="26.187" height="26.187"/>
	<path class="st0" d="M0,131.532h131.532V0H0V131.532z M42.168,19.611h10.378v22.861h36.564v46.943H42.168V19.611z M112.38,111.921
		H19.153v-92.31h10.379v81.93h72.469v-71.55H67.207v-10.38h45.173V111.921z"/>
	<g>
		<path class="st0" d="M177.421,58.1H163.64c-0.429,0-0.613-0.184-0.613-0.612V20.126c0-0.428,0.184-0.612,0.613-0.612h13.781
			c6.982,0,11.392,4.471,11.392,11.392v0.613c0,2.266-1.47,4.9-3.246,6.615c-0.184,0.123-0.245,0.306-0.245,0.429
			s0.061,0.306,0.245,0.429c1.776,1.715,3.246,4.655,3.246,6.921v0.919C188.813,53.751,184.403,58.1,177.421,58.1z M181.831,30.354
			c0-2.389-2.021-4.41-4.41-4.41h-6.737c-0.429,0-0.612,0.184-0.612,0.613v8.146c0,0.429,0.184,0.613,0.612,0.613h6.737
			c2.389,0,4.41-2.021,4.41-4.41V30.354z M181.831,46.095c0-2.45-1.96-4.349-4.41-4.349h-6.737c-0.429,0-0.612,0.184-0.612,0.612
			v8.697c0,0.429,0.184,0.612,0.612,0.612h6.737c2.389,0,4.41-1.899,4.41-4.41V46.095z"/>
		<path class="st0" d="M221.092,58.1h-6.308c-0.245,0-0.49-0.184-0.551-0.429l-5.39-15.557c-0.061-0.245-0.245-0.367-0.49-0.367
			h-5.451c-0.429,0-0.613,0.184-0.613,0.612v15.129c0,0.429-0.184,0.612-0.613,0.612h-5.818c-0.429,0-0.613-0.184-0.613-0.612
			V20.126c0-0.428,0.184-0.612,0.613-0.612h13.781c6.983,0,11.393,4.471,11.393,11.392v0.613c0,3.124-2.634,6.738-4.961,8.33
			c-0.184,0.122-0.245,0.245-0.245,0.49c0,0.184,0.122,0.49,0.306,0.98l5.267,15.312c0.122,0.429,0.307,0.796,0.307,0.98
			C221.705,57.917,221.521,58.1,221.092,58.1z M214.049,30.354c0-2.389-2.021-4.41-4.41-4.41h-6.737
			c-0.429,0-0.613,0.184-0.613,0.613v8.146c0,0.429,0.184,0.613,0.613,0.613h6.737c2.389,0,4.41-2.021,4.41-4.41V30.354z"/>
		<path class="st0" d="M241.06,58.713h-3.001c-6.982,0-11.393-4.471-11.393-10.841v-18.13c0-6.37,4.41-10.841,11.393-10.841h3.001
			c6.921,0,11.393,4.471,11.393,10.841v18.13C252.452,54.241,247.981,58.713,241.06,58.713z M245.408,29.742
			c0-2.45-1.899-4.41-4.348-4.41h-3.001c-2.389,0-4.41,2.021-4.41,4.41v18.13c0,2.389,2.021,4.41,4.41,4.41h3.001
			c2.45,0,4.348-1.96,4.348-4.41V29.742z"/>
		<path class="st0" d="M273.339,58.713h-3.001c-6.982,0-11.393-4.471-11.393-10.841v-18.13c0-6.37,4.41-10.841,11.393-10.841h3.001
			c6.921,0,11.393,4.471,11.393,10.841v18.13C284.731,54.241,280.26,58.713,273.339,58.713z M277.687,29.742
			c0-2.45-1.898-4.41-4.348-4.41h-3.001c-2.388,0-4.41,2.021-4.41,4.41v18.13c0,2.389,2.022,4.41,4.41,4.41h3.001
			c2.45,0,4.348-1.96,4.348-4.41V29.742z"/>
		<path class="st0" d="M319.521,58.1h-7.167c-0.184,0-0.367-0.122-0.49-0.306l-9.616-15.373c-0.184-0.245-0.367-0.429-0.551-0.429
			c-0.184,0-0.367,0.122-0.49,0.306l-1.96,2.634c-0.306,0.429-0.49,0.858-0.49,1.47v11.086c0,0.429-0.184,0.612-0.612,0.612h-5.819
			c-0.429,0-0.613-0.184-0.613-0.612V20.126c0-0.428,0.184-0.612,0.613-0.612h5.819c0.428,0,0.612,0.184,0.612,0.612v13.597
			c0,0.429,0.245,0.735,0.551,0.735c0.184,0,0.367-0.122,0.551-0.368l10.902-14.332c0.122-0.122,0.306-0.245,0.49-0.245h7.044
			c0.429,0,0.674,0.184,0.674,0.49c0,0.122-0.061,0.306-0.184,0.49l-11.515,14.271c-0.245,0.306-0.429,0.551-0.429,0.796
			c0,0.184,0.122,0.368,0.367,0.796l12.556,20.335c0.245,0.429,0.428,0.674,0.428,0.919C320.194,57.917,319.95,58.1,319.521,58.1z"
			/>
		<path class="st0" d="M345.859,58.1h-21.621c-0.429,0-0.613-0.184-0.613-0.612V20.126c0-0.428,0.184-0.612,0.613-0.612h5.819
			c0.428,0,0.612,0.184,0.612,0.612v30.931c0,0.429,0.184,0.612,0.613,0.612h14.577c0.428,0,0.613,0.184,0.613,0.612v5.206
			C346.472,57.917,346.287,58.1,345.859,58.1z"/>
		<path class="st0" d="M370.727,20.983l-9.984,18.681c-0.306,0.613-0.428,0.98-0.428,1.715v16.109c0,0.429-0.184,0.612-0.613,0.612
			h-5.819c-0.429,0-0.613-0.184-0.613-0.612v-16.17c0-0.613-0.061-0.919-0.429-1.654l-9.984-18.681
			c-0.245-0.429-0.429-0.735-0.429-0.98c0-0.306,0.245-0.49,0.674-0.49h6.799c0.245,0,0.428,0.184,0.551,0.368l5.818,12.005
			c0.123,0.306,0.368,0.49,0.552,0.49s0.429-0.184,0.551-0.49l5.819-12.005c0.122-0.184,0.306-0.368,0.551-0.368h6.737
			c0.428,0,0.674,0.184,0.674,0.49C371.156,20.248,370.91,20.616,370.727,20.983z"/>
		<path class="st0" d="M399.515,58.1h-5.084c-0.245,0-0.428-0.122-0.551-0.306l-10.964-19.967c-0.245-0.429-1.103-2.634-1.287-3.124
			l-0.245,0.061c0.122,1.47,0.367,10.29,0.367,15.129v7.595c0,0.429-0.184,0.612-0.612,0.612h-5.819
			c-0.429,0-0.613-0.184-0.613-0.612V20.126c0-0.428,0.184-0.612,0.613-0.612h5.145c0.245,0,0.429,0.123,0.551,0.306l10.964,20.09
			c0.245,0.429,1.102,2.634,1.286,3.124l0.245-0.061c-0.122-1.47-0.367-10.29-0.367-15.129v-7.717c0-0.428,0.184-0.612,0.613-0.612
			h5.757c0.429,0,0.612,0.184,0.612,0.612v37.362C400.127,57.917,399.943,58.1,399.515,58.1z"/>
	</g>
	<g>
		<path class="st0" d="M174.297,112.123h-2.45c-5.084,0-7.84-2.082-9.677-4.961c-0.551-0.919-1.164-1.898-1.164-2.267
			c0-0.183,0.123-0.306,0.368-0.428l4.9-2.512c0.245-0.122,0.49-0.307,0.735-0.307c0.184,0,0.367,0.122,0.49,0.429
			c1.103,2.634,2.695,3.613,4.349,3.613h2.45c2.389,0,4.41-2.021,4.41-4.41c0-3.308-3.246-4.532-6.554-6.064
			c-4.839-2.327-10.167-4.839-10.167-12.065c0-6.37,4.41-10.841,11.392-10.841h0.98c5.084,0,7.84,2.082,9.677,4.961
			c0.551,0.919,1.164,1.898,1.164,2.265c0,0.184-0.123,0.307-0.368,0.429l-4.9,2.511c-0.245,0.122-0.49,0.307-0.735,0.307
			c-0.184,0-0.367-0.122-0.49-0.429c-1.102-2.634-2.695-3.613-4.349-3.613h-0.98c-2.388,0-4.41,2.021-4.41,4.41
			c0,3.124,3.552,4.042,7.105,5.696c4.655,2.144,9.616,5.023,9.616,12.434C185.69,107.652,181.28,112.123,174.297,112.123z"/>
		<path class="st0" d="M208.107,111.939c-0.307,0.062-0.429,0.246-0.429,0.613v3.613c0,0.429-0.184,0.612-0.612,0.612h-5.207
			c-0.428,0-0.612-0.183-0.612-0.612v-3.613c0-0.367-0.245-0.551-0.613-0.613c-5.696-0.857-9.065-5.022-9.065-10.657v-18.13
			c0-6.37,4.41-10.841,11.392-10.841h3.002c6.921,0,11.392,4.471,11.392,10.841v18.13
			C217.355,106.917,213.803,111.082,208.107,111.939z M210.312,83.153c0-2.45-1.899-4.41-4.348-4.41h-3.002
			c-2.389,0-4.41,2.021-4.41,4.41v18.13c0,1.041,0.367,2.082,1.041,2.817c0.428,0.491,1.041,0.919,1.347,0.919
			c0.245,0,0.429-0.183,0.551-0.49l0.796-2.45c0.122-0.307,0.306-0.429,0.612-0.429h3.124c0.306,0,0.49,0.122,0.612,0.429
			l0.796,2.572c0.122,0.367,0.306,0.491,0.49,0.491c0.367,0,0.918-0.551,1.225-0.858c0.673-0.796,1.164-1.838,1.164-3.001V83.153z"
			/>
		<path class="st0" d="M238.242,112.123h-3.001c-6.982,0-11.393-4.471-11.393-10.841V73.536c0-0.428,0.184-0.612,0.613-0.612h5.757
			c0.429,0,0.612,0.184,0.612,0.612v27.746c0,2.389,2.021,4.41,4.41,4.41h3.001c2.45,0,4.348-1.96,4.348-4.41V73.536
			c0-0.428,0.184-0.612,0.613-0.612h5.819c0.428,0,0.613,0.184,0.613,0.612v27.746C249.634,107.652,245.163,112.123,238.242,112.123
			z"/>
		<path class="st0" d="M280.259,111.511h-6.186c-0.307,0-0.552-0.122-0.613-0.429l-1.838-6.431
			c-0.061-0.306-0.306-0.367-0.612-0.367h-8.759c-0.307,0-0.551,0.062-0.613,0.367l-1.838,6.431
			c-0.061,0.307-0.306,0.429-0.613,0.429h-6.125c-0.428,0-0.674-0.184-0.674-0.49c0-0.246,0.184-0.613,0.307-1.103l11.147-36.566
			c0.061-0.307,0.306-0.429,0.613-0.429h4.41c0.307,0,0.552,0.122,0.613,0.429l11.147,36.566c0.122,0.367,0.307,0.857,0.307,1.103
			C280.933,111.327,280.688,111.511,280.259,111.511z M269.235,96.137l-1.776-7.166c-0.122-0.428-0.551-2.879-0.674-3.368h-0.184
			c-0.122,0.49-0.613,2.879-0.735,3.368l-1.838,7.105c-0.122,0.429-0.306,0.979-0.306,1.225c0,0.306,0.245,0.55,0.674,0.55h4.471
			c0.429,0,0.674-0.245,0.674-0.55C269.541,97.056,269.357,96.505,269.235,96.137z"/>
		<path class="st0" d="M310.395,111.511h-6.309c-0.245,0-0.49-0.184-0.551-0.429l-5.39-15.557c-0.061-0.245-0.245-0.367-0.49-0.367
			h-5.451c-0.429,0-0.613,0.184-0.613,0.612v15.128c0,0.429-0.184,0.613-0.612,0.613h-5.819c-0.429,0-0.613-0.184-0.613-0.613
			V73.536c0-0.428,0.184-0.612,0.613-0.612h13.781c6.982,0,11.392,4.471,11.392,11.393v0.612c0,3.124-2.633,6.738-4.961,8.33
			c-0.184,0.124-0.245,0.246-0.245,0.491c0,0.183,0.122,0.49,0.307,0.979l5.267,15.312c0.122,0.429,0.306,0.796,0.306,0.981
			C311.007,111.327,310.823,111.511,310.395,111.511z M303.35,83.765c0-2.389-2.021-4.41-4.41-4.41h-6.737
			c-0.429,0-0.613,0.183-0.613,0.612v8.147c0,0.429,0.184,0.612,0.613,0.612h6.737c2.388,0,4.41-2.021,4.41-4.41V83.765z"/>
		<path class="st0" d="M339.06,111.511h-21.621c-0.429,0-0.613-0.184-0.613-0.613V73.536c0-0.428,0.184-0.612,0.613-0.612h21.621
			c0.428,0,0.612,0.184,0.612,0.612v5.207c0,0.428-0.184,0.612-0.612,0.612h-14.577c-0.428,0-0.613,0.183-0.613,0.612v8.147
			c0,0.429,0.184,0.612,0.613,0.612h11.944c0.429,0,0.613,0.184,0.613,0.612v5.207c0,0.428-0.184,0.612-0.613,0.612h-11.944
			c-0.428,0-0.613,0.184-0.613,0.612v8.698c0,0.428,0.184,0.612,0.613,0.612h14.577c0.428,0,0.612,0.184,0.612,0.612v5.206
			C339.672,111.327,339.488,111.511,339.06,111.511z"/>
	</g>
</g>
</svg>
